<svg width="199" height="48" viewBox="0 0 199 48" fill="none" xmlns="http://www.w3.org/2000/svg">
<path d="M20.6316 8.84752C20.1884 9.76383 20.5634 12.5742 21.2167 13.6808L23.466 14.0588C22.1074 13.5522 20.0903 8.18032 23.6436 8.18032C27.3557 8.18032 24.9884 14.168 23.6436 14.0977V15.2862L25.9003 15.2574L25.9298 13.4135C27.0651 11.2208 26.7452 9.45636 26.4434 8.84823C25.8738 7.34177 24.3551 6.93961 23.6436 6.97944C21.854 6.97165 21.0748 7.93121 20.6316 8.84752Z" fill="black"/>
<path d="M21.2167 13.6808L22.3374 15.2855L23.6436 15.2862V14.0977C23.5861 14.0947 23.5267 14.0814 23.466 14.0588L21.2167 13.6808Z" fill="black"/>
<path fill-rule="evenodd" clip-rule="evenodd" d="M27.5692 19.2034C27.6061 18.6448 27.7822 18.5512 27.7446 18.0746L26.6411 16.589C26.4299 16.7661 26.3743 17.0629 26.3829 17.2083C26.3206 17.7751 26.3236 18.0266 26.2768 18.4796C26.2029 19.1941 26.1029 20.0181 26.0308 20.6101C25.8853 21.5788 26.0048 22.6282 26.0827 23.0318C26.332 24.8544 26.1866 25.7347 26.0827 25.9471L25.9788 31.49H25.8316C25.3191 30.4928 25.0178 29.4539 24.9312 29.0592C24.6542 27.2653 24.0232 26.9065 23.7423 26.9513C23.2608 26.7925 22.8102 27.6822 22.6451 28.1469C21.8961 29.3913 20.9599 30.3837 20.5855 30.7243L20.6634 26.1449C20.8199 25.6459 20.9384 25.3178 20.978 25.2161C21.3185 24.4858 21.6327 23.2924 21.7471 22.787C21.8786 21.7969 21.6227 20.8415 21.4783 20.4877C21.3436 19.0386 20.6231 17.5628 20.2798 17.0061C20.038 16.4862 19.605 15.8521 19.4187 15.6L19.2988 15.2855L18.5764 14.0168L18.7462 16.2911L18.4242 16.4104L18.9873 17.7638L19.5897 19.2172C19.8036 19.8873 20.1755 21.2208 20.3347 21.8038C20.3221 22.3819 20.0758 23.1121 19.9543 23.405C19.5865 24.1538 19.3797 25.4117 19.3223 25.9471C18.7719 26.8342 18.362 27.5305 18.2259 27.7677C17.8226 28.7345 17.352 29.8815 17.1671 30.3341L16.339 32.3601C16.1697 33.1903 15.3081 34.5589 14.8984 35.1394C13.9409 36.0768 13.3221 37.3393 13.1325 37.8534C12.7705 39.3533 12.6071 40.7665 12.5706 41.2856C12.5589 41.709 11.5149 42.5406 10.9943 42.9035L11.06 43.0244L12.2422 43.6217L13.5338 42.4877C13.8316 41.9555 13.9449 41.2882 13.9644 41.021C14.0169 40.5735 14.1614 39.5544 14.2271 39.1008C14.303 38.8831 14.3365 38.7127 14.3438 38.6548C14.3438 38.2133 14.6114 37.7047 14.7452 37.5056C15.615 36.6226 16.426 35.2124 16.7228 34.6177C17.2248 33.7166 18.0849 31.6466 18.4522 30.7243C18.8025 30.2163 19.1438 29.172 19.2707 28.7134V32.5849V32.8319L18.3458 34.1764C17.313 35.0054 16.7187 36.1777 16.5506 36.6603C16.3577 37.7813 15.8355 38.7118 15.5984 39.0369C14.9842 39.8222 14.3315 41.3275 14.0819 41.9819C13.8162 43.0719 13.2842 43.8158 13.0515 44.0515V44.1829L14.0819 44.9525L14.2106 44.8223L14.9758 43.38C15.3392 42.7622 15.8736 41.337 16.0954 40.7016C16.0573 40.5834 16.6019 39.8411 16.8789 39.4847C17.3201 39.2899 17.7378 37.5206 17.8914 36.6603C18.1663 36.5237 19.3018 35.1334 19.8351 34.4553C19.8351 35.8114 19.703 36.6041 19.6369 36.8309C19.3568 37.8658 19.276 38.5701 19.2707 38.7929C19.2001 39.14 19.1678 39.6329 19.1604 39.8359C19.0722 40.5607 19.1972 41.1682 19.2707 41.3814C19.8409 43.1111 20.4018 44.4828 20.611 44.9525C20.6973 46.0628 20.7606 45.4903 20.6513 45.647L21.9012 45.5927C22.135 44.9401 21.8765 44.7267 21.7297 44.1829C21.7297 43.8333 20.6032 41.5416 20.5032 41.0038C20.4232 40.5735 20.3949 39.0941 20.3907 38.4082C20.5707 38.3253 20.7323 37.2084 20.7907 36.6603L20.7222 32.8319L22.3343 30.8303C22.3403 30.82 22.3466 30.8121 22.3534 30.8066L22.3343 30.8303C22.1449 31.1563 22.3373 33.8489 22.4613 35.1947C21.4634 36.1504 21.2699 36.9989 21.2979 37.3037C21.1924 38.4457 21.5418 39.3046 21.7297 39.5913C21.9024 39.6509 21.7057 41.0409 21.5858 41.7284C21.6146 43.3885 22.0695 44.4407 22.2934 44.7593C22.5237 44.9276 22.4109 45.0435 22.4069 45.4624H22.7337H24.3948L24.5421 45.2567C24.6381 44.5907 24.7321 43.381 24.6921 42.4118C24.6153 41.4896 24.1964 40.7519 23.9965 40.4983C24.1884 40.1902 24.3083 34.3644 24.3443 31.49C24.872 32.5834 25.4757 33.271 25.7116 33.4781C25.8363 34.2483 25.7635 35.3977 25.7116 35.8761C25.654 36.3632 25.0079 37.6861 24.6921 38.2866C24.6921 39.559 24.8472 39.5034 24.92 40.0805C24.92 40.0805 24.9842 40.5949 24.92 41.827C24.8557 43.0592 24.92 43.6615 24.92 43.6615C24.9008 45.0745 25.0319 45.5377 25.0999 45.5927C25.2246 46.05 25.9009 45.1531 26.1688 45.2567C26.3798 45.4555 26.6548 43.8428 26.6548 45.4624L27.1887 45.3042H28.6824C28.8041 44.5093 27.7362 44.8762 27.2725 44.9525C26.9319 44.883 26.2394 44.7275 26.2402 44.7593L26.1688 41.827C26.4045 40.5246 26.1301 39.2308 25.9634 38.7467C26.0334 38.0943 26.1274 38.0842 26.2795 37.8145C26.2888 37.7669 26.432 37.331 26.5706 37.0539C26.7348 36.7255 26.7521 35.6775 26.7402 35.1947L26.9634 35.7312C27.1277 36.486 27.336 37.1382 27.4461 37.3478C27.4889 38.0139 27.8027 38.4754 27.9277 38.645C28.6635 39.5478 29.1629 40.5937 29.3206 41.0038C29.3921 41.766 30.7492 43.0931 31.4189 43.6615C31.6403 44.0338 31.8088 45.0172 31.8653 45.4624H32.0444L33.0261 44.7593C32.8546 43.5605 32.5201 43.0573 32.3743 42.9556C31.71 41.9195 31.0677 41.3029 30.8296 41.124C30.651 40.1028 29.5636 38.5886 29.0422 37.9592C28.7975 36.8117 28.5223 36.0377 28.4153 35.7941C27.9346 34.0296 27.42 33.3412 27.2228 33.2176L27.2725 28.5071C27.9871 30.47 28.3823 30.9982 28.4906 31.0169C29.346 32.8677 29.4187 34.2549 29.3481 34.7171C29.4482 36.3034 30.0737 37.2097 30.3739 37.4646C31.3947 38.6465 31.9129 40.9107 32.0444 41.8951C32.3234 42.7439 33.1386 43.4263 33.5113 43.6615C34.1048 43.8817 34.9272 43.6886 35.2643 43.5646L36.7368 42.6393C35.8245 42.0092 34.4983 42.3038 33.9492 42.5299C33.6789 42.0136 33.3016 41.5344 33.1467 41.3594C33.0115 40.2042 32.6686 38.9873 32.514 38.5233C32.0796 37.5588 31.1434 36.1847 30.7296 35.6182C30.6941 34.8282 30.5986 33.7836 30.5553 33.36C30.0602 30.9964 29.3966 29.8685 29.1267 29.6001C29.1567 29.3055 28.3592 27.7115 27.9567 26.9513C27.9567 26.6722 27.9108 25.9184 27.8878 25.5764C27.8878 25.1496 27.6369 24.3862 27.5114 24.0579C27.4084 23.9019 27.3742 21.8731 27.3433 20.8936C27.3433 20.2705 27.3291 20.0089 27.5692 19.2034ZM22.5871 37.5901C22.5413 37.0328 22.789 36.738 22.9186 36.6603C23.0374 36.8544 22.9681 37.1701 22.9186 37.3037C22.9186 37.3745 22.905 37.505 22.8876 37.6602L22.8109 38.542H22.7337L22.5871 37.5901ZM23.5133 42.5642C23.4086 42.2835 23.0238 41.6968 22.9186 41.3294C22.9497 41.7582 22.6895 41.5637 22.804 42.5642C22.9186 43.5646 23.3796 44.0409 23.5133 44.1829C23.5133 44.1829 23.6181 42.8449 23.5133 42.5642Z" fill="black"/>
<path d="M27.7184 12.6616C26.9655 12.6616 26.2474 13.1366 25.9764 13.3499L25.9298 13.4135L25.9003 15.2574L28.3929 15.1728C28.108 15.7964 27.1141 16.3768 26.6411 16.589L27.7446 18.0746L28.8858 17.5292L29.0723 16.3562L29.2844 16.1885V16.1563L28.9681 13.9737C29.2581 14.0338 30.067 13.8303 30.4363 13.7088C30.713 13.6177 31.7501 13.3444 32.292 13.1477C32.5031 13.0474 33.9349 12.2037 34.6943 11.6781C35.2431 11.3977 35.7371 11.2785 36.4509 11.1524C36.7545 11.0988 37.1597 10.9684 37.3968 10.8871H37.4486C38.1563 10.4142 38.6256 10.1674 39.0846 9.76859L40.012 9.09051L39.3081 7.85286L38.1957 8.69433C38.1141 8.87281 37.4336 9.43306 37.1036 9.69087C36.9835 9.72439 36.6184 9.80061 36.4509 9.83454C36.3307 9.87763 35.3116 10.1742 34.8171 10.3171C34.2669 10.3418 33.6698 10.7074 33.44 10.8871C33.0246 11.1588 32.1784 11.6881 31.8072 11.9188C30.2912 12.2035 29.5678 12.5331 29.3957 12.6623H28.5332L27.7184 12.6616Z" fill="black"/>
<path d="M30.2003 14.3599C29.811 14.214 29.2166 14.0417 28.9681 13.9737L29.2844 16.1563V16.1885L30.2743 16.1563C30.763 16.1043 31.1971 16.0329 31.4542 15.9809C32.3298 15.8038 32.9848 15.7695 33.5124 15.6512H38.4676C38.587 15.7549 39.2722 15.342 39.5998 15.1225C39.8673 14.8743 40.6228 15.0837 40.9383 14.8743C41.2309 14.8503 42.2022 15.1012 42.2648 15.3506L41.8294 15.1754L42.2048 14.8743L42.4169 13.8611L42.7996 13.9737C42.2433 13.6675 41.4956 13.775 40.9383 13.5339C40.687 13.4893 40.038 13.5468 39.7449 13.7018C38.9589 13.817 38.3138 14.2426 38.0894 14.441H35.026H34.4137V14.2118H34.5686C35.2591 14.1873 36.1842 13.687 36.5604 13.4398C36.8496 13.2931 37.3842 12.8386 37.6154 12.6297C37.8396 12.4157 38.2498 12.2552 38.4269 12.2017C38.7338 12.1956 39.3367 11.9342 39.5998 11.8043C40.1782 11.1929 41.0644 10.938 41.4352 10.8871V10.7555L40.5654 9.76859C40.0683 9.83076 39.8336 9.98758 39.7784 10.0582C39.1406 10.7791 38.1389 11.0523 37.7178 11.0988C36.906 11.3391 35.9989 12.1358 35.6469 12.5041C34.8102 12.7015 34.2283 13.0655 34.0419 13.2228C33.3627 13.2829 32.7786 13.4552 32.5716 13.5339C32.2029 13.8071 31.828 13.9291 31.2082 14.3351C30.5461 14.4908 30.2003 14.3599 30.2003 14.3599Z" fill="black"/>
<path d="M42.2048 14.8743L41.8294 15.1754V15.6512L41.7535 15.7826L39.6551 16.0336H37.0675C36.4915 15.999 35.6826 16.1461 35.4966 16.324H34.2199C33.9906 16.324 33.4859 16.41 33.1564 16.324C32.3203 16.1021 31.2557 16.2315 30.828 16.324L29.0723 16.3562L28.8858 17.5292L27.7446 18.0746C28.1127 18.0123 28.651 17.705 28.8858 17.5591C30.6696 17.7536 31.4163 17.8157 31.4163 17.7638C31.6717 18.0118 32.5411 17.8109 32.7464 17.8273H35.7897C36.1956 17.7949 37.5819 17.68 37.895 17.5292C38.6932 17.5357 39.3905 17.2197 39.9687 17.1583C40.5661 17.1738 41.607 17.0491 42.0527 16.9849L42.2048 14.8743Z" fill="black"/>
<path d="M17.7994 15.9973C18.0206 16.2348 18.5515 16.2915 18.7462 16.2911L18.5764 14.0168C18.5764 14.0168 17.8759 14.2023 17.2607 14.2023C16.6454 14.2023 14.6122 13.3684 14.0335 13.2012C12.3201 12.9547 11.0237 12.1332 10.5897 11.7532C9.94059 11.3888 8.75788 10.5956 8.24767 10.2445L8.07056 10.0783L7.72095 9.93291L7.25089 9.7851L6.96798 9.73476L5.50347 9.93291L5.98327 10.7402L6.79324 11.0117C7.20617 11.2848 7.58377 11.4299 7.72095 11.4683C7.98904 11.7723 8.54019 12.0885 8.78224 12.2086L9.59296 12.7685L10.2972 13.2012L10.9032 13.5597L11.4928 13.846L11.9268 14.0168L12.1479 14.075L12.4018 14.1175L12.713 14.2023L12.8358 14.3465H12.541L11.4928 14.2956L10.0184 14.4311L8.71519 14.4004C8.55935 14.3313 8.18494 14.158 7.93398 14.0168C7.68303 13.8757 6.77313 13.6842 6.34955 13.6062L6.01448 13.5597H5.8154H5.64958L5.00912 13.6598H4.55469L4.91033 14.0901L5.00912 14.9821L5.50347 14.8779L5.93116 14.9821H6.21356H6.44826L7.75846 15.4213C8.83534 15.7954 9.39869 15.4213 9.80549 15.5605C10.1309 15.6718 10.3918 15.6848 10.7405 15.6384C10.4606 15.592 11.3658 15.6384 12.0816 15.6384C13.2311 15.6384 13.4669 15.5408 13.5724 15.5605C13.6568 15.5762 14.5181 15.5539 14.9382 15.5408C15.1285 15.5608 15.5523 15.7576 15.8601 15.7247C16.079 15.6962 16.4039 15.7669 16.7839 15.7247C16.9247 15.7091 17.2626 15.7891 17.3539 15.8367C17.6421 15.9315 17.6637 15.9626 17.7994 15.9973Z" fill="black"/>
<path d="M17.5059 17.7064C18.197 17.8115 18.7892 17.7885 18.9873 17.7638L18.4242 16.4104L18.2043 16.4531H17.9092L17.1876 16.2911L16.6382 16.1467C16.4677 16.0774 16.2939 16.0574 16.2283 16.0561H14.613C14.18 16.0992 13.846 16.3102 13.7331 16.4104C13.4097 16.5521 12.6433 16.4979 12.3005 16.4531L12.1472 16.4104L11.5458 16.2332L10.9739 16.0561L10.632 15.9401L10.2664 15.8912L9.97166 15.8484L9.65329 15.8023H9.24649H8.48776H8.29161H8.09547C8.09547 15.8023 7.85089 15.6918 7.70702 15.6918H7.44446C7.30196 15.6918 7.15457 15.6556 7.09869 15.6375H6.81578L6.57455 15.5596H6.19735L5.9565 15.4204H5.86228L5.49738 15.3603L4.633 15.2898V15.7443V16.5983L4.75813 16.6446C4.96769 16.641 5.82037 16.8229 5.86228 16.8316C5.90419 16.8403 6.26394 16.9076 6.43857 16.9402L6.81578 17.103L8.12553 17.1726H9.57196H10.1902C10.2509 17.2109 10.4834 17.3286 10.9273 17.4929C11.3712 17.6571 11.889 17.7419 12.0924 17.7638C12.3355 17.835 13.0039 17.9346 13.7331 17.7638C14.4623 17.593 15.1201 17.3752 15.3579 17.2876C15.8145 17.4781 16.9801 17.6461 17.5059 17.7064Z" fill="black"/>
<path d="M18.4479 13.8451L18.5764 14.0168L19.2988 15.2855L21.2167 13.6808C20.8991 13.5051 20.2796 13.0352 20.1559 12.9791C19.407 12.6076 17.6639 12.31 16.886 12.2077C16.0675 12.0765 15.145 11.7931 14.786 11.6678C14.2662 11.4493 13.1305 10.8069 12.6276 10.513C12.548 10.4753 12.266 10.3354 11.7746 10.0775C11.2833 9.81957 10.3957 9.81302 10.0133 9.84198L9.55281 9.73389L8.48776 8.72484L6.73758 8.95628L6.81578 9.59918H7.01063H7.44446L7.74833 9.78423L8.48776 10.3192C8.74067 10.4593 9.24649 10.753 9.24649 10.8078C9.24649 10.8626 9.65965 11.0302 9.86623 11.1071L11.4379 11.4674C11.9873 11.9239 14.1798 12.8129 15.2073 13.2003C15.8958 13.5465 17.3589 13.7193 18.0044 13.7625L18.4479 13.8451Z" fill="black"/>
<path d="M19.2988 15.2855H22.3374L21.2167 13.6808L19.2988 15.2855Z" fill="black"/>
<path d="M3.53415 5.84494H42.9949V46.1257H3.53415V5.84494Z" stroke="black" stroke-width="0.858338"/>
<path d="M46.625 24.0001C46.625 36.4845 36.2921 46.62 23.5271 46.62C10.7621 46.62 0.429169 36.4845 0.429169 24.0001C0.429169 11.5157 10.7621 1.3801 23.5271 1.3801C36.2921 1.3801 46.625 11.5157 46.625 24.0001Z" stroke="black" stroke-width="0.858338"/>
<path d="M65.2642 30.1123H64.9946C64.755 30.1123 64.5604 30.0674 64.4106 29.9775C64.1711 29.8428 63.8866 29.3337 63.5571 28.4502L59.2896 17.1074H57.9419V16.5234H63.0181V17.1074H61.2212L65.2866 27.709L69.0376 17.1074H67.2407V16.5234H71.0142V17.1074H69.8911L65.2642 30.1123ZM76.7255 30H71.2226V29.416H73.0195V17.1074H71.2226V16.5234H76.7255V17.1074H74.9511V29.416H76.1415C76.2164 29.416 76.2913 29.4235 76.3662 29.4385C76.6057 29.4834 76.7255 29.6706 76.7255 30ZM77.1586 17.1074V16.5234H82.6615V17.1074H80.8871V24.8115C80.8871 25.7848 80.9919 26.6084 81.2015 27.2822C81.6807 28.8245 82.8337 29.5957 84.6605 29.5957C84.8402 29.5957 85.0199 29.5882 85.1996 29.5732C87.3558 29.3486 88.434 27.7839 88.434 24.8789V17.1074H86.6371V16.5234H91.017V17.1074H89.2201V24.7441C89.2201 25.5827 89.1377 26.3314 88.973 26.9902C88.419 29.1465 86.8243 30.2246 84.1888 30.2246C80.7299 30.2096 78.9854 28.4502 78.9555 24.9463V17.1074H77.1586ZM101.355 26.4736C101.355 27.387 101.033 28.1732 100.389 28.832C99.4461 29.7604 98.1134 30.2246 96.3914 30.2246C94.924 30.2246 93.6138 29.8428 92.4608 29.0791C92.4608 29.3936 92.4458 29.6107 92.4158 29.7305C92.3559 29.9401 92.1463 30.0449 91.7869 30.0449V25.3955H92.4608C92.7153 28.1657 93.9881 29.5658 96.2791 29.5957C96.8631 29.5957 97.3947 29.4909 97.8738 29.2812C98.8921 28.8171 99.4012 28.0609 99.4012 27.0127C99.4012 26.6084 99.3039 26.234 99.1092 25.8896C98.7498 25.2757 97.8963 24.6693 96.5487 24.0703C95.0962 23.4414 94.2427 23.0596 93.9881 22.9248C92.5806 22.1312 91.8768 21.1055 91.8768 19.8477C91.8768 19.0091 92.1763 18.2754 92.7752 17.6465C93.6737 16.748 94.9315 16.2988 96.5487 16.2988C97.8813 16.2988 99.0793 16.5908 100.142 17.1748C100.142 16.9951 100.157 16.8529 100.187 16.748C100.247 16.5234 100.457 16.4111 100.816 16.4111V20.3418H100.142C100.157 19.5033 99.9477 18.792 99.5135 18.208C98.8546 17.3545 97.8963 16.9277 96.6385 16.9277C96.1294 16.9277 95.6652 17.0101 95.2459 17.1748C94.2726 17.5641 93.786 18.2604 93.786 19.2637C93.786 19.638 93.8758 19.9899 94.0555 20.3193C94.3999 20.9183 95.2384 21.5023 96.5711 22.0713C98.0386 22.7152 98.9145 23.112 99.199 23.2617C100.637 24.0703 101.355 25.141 101.355 26.4736ZM119.247 30H114.395V29.416H115.855L114.171 25.0586H109.476L107.792 29.416H108.892C108.967 29.416 109.042 29.4235 109.117 29.4385C109.356 29.4834 109.476 29.6706 109.476 30H105.478V29.416H106.893L111.925 16.5234H112.756L117.899 29.416H118.663C118.738 29.416 118.813 29.4235 118.887 29.4385C119.127 29.4834 119.247 29.6706 119.247 30ZM113.924 24.4072L111.812 18.9717L109.723 24.4072H113.924ZM124.958 30H119.455V29.416H121.252V17.1074H119.455V16.5234H124.958V17.1074H123.184V29.416H124.374C124.449 29.416 124.524 29.4235 124.599 29.4385C124.838 29.4834 124.958 29.6706 124.958 30Z" fill="black"/>
</svg>
